<svg width="57" height="56" viewBox="0 0 57 56" fill="none" xmlns="http://www.w3.org/2000/svg">
<g clip-path="url(#clip0_0_40)">
<path fill-rule="evenodd" clip-rule="evenodd" d="M10.3359 0.151667C10.323 0.235107 10.3003 0.523227 10.2853 0.79198C10.2384 1.63455 9.9684 2.76551 9.59258 3.69301C8.07985 7.42658 4.58062 9.93267 0.629375 10.1124L0 10.141V20.3305V30.52H2.58875H5.1775V43.2133V55.9067H13.585H21.9925V53.9233V51.94H15.58H9.1675V39.2467V26.5533H6.6025H4.0375V20.0027V13.452L4.28146 13.4202C4.71585 13.3636 5.56785 13.1253 6.1275 12.9039C8.74656 11.8678 11.3319 9.54949 12.8468 6.87853C13.3044 6.0718 13.7249 4.93075 13.8468 4.165L13.8784 3.96667H35.3679H56.8575V1.98333V0H33.6084H10.3593L10.3359 0.151667ZM42.5828 39.8693C42.0666 40.0989 41.932 40.8134 42.3335 41.1938C42.5291 41.3791 42.7088 41.4466 43.0156 41.4497C43.3487 41.4531 43.5746 41.3697 43.7431 41.1811C44.0837 40.8001 44.0302 40.2677 43.6206 39.9608C43.4701 39.848 43.3967 39.8283 43.0862 39.8178C42.8582 39.81 42.6737 39.8289 42.5828 39.8693ZM36.8125 43.5395V47.04H37.6437H38.475V45.71V44.38H39.7812H41.0875V43.7267V43.0733H39.7812H38.475V42.21V41.3467H39.8776H41.2802L41.267 40.705L41.2537 40.0633L39.0331 40.0512L36.8125 40.0391V43.5395ZM54.1975 41.37V42.0467H53.8412H53.485V42.6767V43.3067H53.8375H54.1898L54.2089 44.6483C54.2244 45.7384 54.2428 46.0345 54.3073 46.2273C54.4349 46.6095 54.6242 46.8241 54.9892 47.0007C55.2942 47.1482 55.339 47.1566 55.8115 47.1548C56.0864 47.1539 56.4555 47.1252 56.6319 47.0912L56.9525 47.0295L56.9522 46.7897C56.9521 46.6579 56.9383 46.3773 56.9215 46.1662L56.8911 45.7823L56.5504 45.8107C55.8974 45.8649 55.86 45.7863 55.86 44.3597V43.3096L56.4181 43.2965L56.9762 43.2833V42.6767V42.07L56.4181 42.0568L55.86 42.0437V41.3685V40.6933H55.0287H54.1975V41.37ZM47.4371 42.029C47.2149 42.0961 46.8042 42.4382 46.6597 42.6767C46.6125 42.7545 46.6026 42.7098 46.6003 42.4072L46.5975 42.0445L45.7781 42.0572L44.9587 42.07L44.9464 44.555L44.9341 47.04H45.7658H46.5975V45.8422C46.5975 44.5618 46.6379 44.1787 46.8034 43.8888C47.0056 43.5346 47.4226 43.3597 47.8754 43.4392C48.0216 43.4649 48.1763 43.4994 48.2191 43.5159C48.2869 43.5421 48.3007 43.4848 48.3273 43.0647C48.344 42.7999 48.3697 42.4641 48.3844 42.3184L48.411 42.0534L48.2286 42.0036C47.9836 41.9368 47.714 41.9454 47.4371 42.029ZM50.3262 42.0178C49.6081 42.2073 49.2175 42.5493 49.0421 43.142C48.8954 43.638 49.0503 44.2274 49.4116 44.5481C49.6404 44.7512 49.9387 44.8853 50.5362 45.0535C51.2696 45.2601 51.49 45.401 51.49 45.6633C51.49 46.1908 50.3942 46.1642 49.548 45.6161C49.4073 45.525 49.287 45.4563 49.2808 45.4635C49.2746 45.4707 49.1343 45.6847 48.9691 45.9389L48.6688 46.401L48.8325 46.5363C49.0576 46.7223 49.5987 46.9765 49.97 47.0707C50.3587 47.1693 51.2253 47.1806 51.585 47.0918C52.147 46.953 52.5593 46.6629 52.7992 46.2375C52.9275 46.0099 52.9388 45.9524 52.9388 45.5233C52.9388 45.1311 52.922 45.0259 52.8337 44.8637C52.6007 44.4358 52.2526 44.2205 51.3414 43.9411C50.7613 43.7632 50.4804 43.6163 50.453 43.4763C50.3922 43.1664 50.659 42.9982 51.1412 43.0423C51.4505 43.0705 51.9195 43.2353 52.1502 43.3966C52.2262 43.4498 52.2991 43.4933 52.3122 43.4933C52.3354 43.4933 52.4055 43.3791 52.7197 42.8303L52.8722 42.564L52.6204 42.4012C52.2078 42.1343 51.6958 41.9909 51.0863 41.9717C50.7473 41.9609 50.4803 41.9772 50.3262 42.0178ZM42.2275 44.5433V47.04H43.035H43.8425V44.5433V42.0467H43.035H42.2275V44.5433ZM27.0969 48.9183C27.0844 48.9504 27.0797 50.5307 27.0864 52.43L27.0987 55.8833L27.9181 55.8961L28.7375 55.9089V54.5545V53.2H29.0114H29.2853L30.0405 54.5533L30.7956 55.9067H31.7378C32.2966 55.9067 32.68 55.8887 32.68 55.8627C32.68 55.8384 32.2837 55.1848 31.7993 54.4102C31.3148 53.6355 30.9248 52.9991 30.9324 52.9958C31.6782 52.6815 32.1081 52.2016 32.2577 51.5164C32.3343 51.1657 32.2878 50.5247 32.1627 50.2062C31.8697 49.4601 31.1896 49.0272 30.1216 48.9069C29.4944 48.8363 27.1253 48.8453 27.0969 48.9183ZM55.29 50.1433C55.29 50.8492 55.2766 51.4267 55.2601 51.4267C55.2437 51.4267 55.1448 51.3508 55.0404 51.2582C54.2581 50.5638 52.7856 50.6606 51.9858 51.4591C50.9986 52.4446 51.0147 54.3873 52.018 55.3548C52.8679 56.1744 54.3595 56.2142 55.1491 55.4384C55.2527 55.3366 55.3501 55.2533 55.3656 55.2533C55.381 55.2533 55.3864 55.3951 55.3774 55.5683L55.3612 55.8833L56.1331 55.8962L56.905 55.909V52.3845V48.86H56.0975H55.29V50.1433ZM28.7731 50.1455C28.7535 50.1657 28.7375 50.5777 28.7375 51.0611V51.94L29.2719 51.9397C29.9422 51.9394 30.1325 51.8884 30.3834 51.6419C30.5383 51.4897 30.5882 51.4003 30.6146 51.2276C30.6821 50.785 30.5263 50.4581 30.1594 50.2726C29.9809 50.1824 29.8423 50.1581 29.3757 50.1358C29.0639 50.1209 28.7927 50.1252 28.7731 50.1455ZM35.34 50.8042C34.057 50.969 33.1783 51.7015 32.9418 52.8033C32.7433 53.7281 33.0094 54.6419 33.6543 55.2503C34.5439 56.0896 36.185 56.2421 37.3298 55.5919C37.8589 55.2914 38.3401 54.6209 38.4704 54.0027C38.5909 53.4307 38.5046 52.7084 38.2529 52.1815C37.9821 51.615 37.2669 51.0699 36.5625 50.8934C36.2635 50.8185 35.6038 50.7703 35.34 50.8042ZM48.1637 50.8343C47.8194 50.9103 47.5077 51.094 47.2672 51.3625L47.0725 51.5798V51.2232V50.8667H46.2408H45.4092L45.4214 53.375L45.4338 55.8833H46.2412H47.0487L47.0725 54.3433C47.0957 52.8408 47.099 52.7979 47.2087 52.5809C47.3808 52.2405 47.5435 52.15 47.983 52.15C48.3056 52.15 48.3621 52.1633 48.476 52.2667C48.7488 52.5139 48.7567 52.5683 48.7736 54.3083L48.7892 55.9067H49.5958H50.4024L50.3879 54.005C50.3737 52.151 50.3706 52.0967 50.2651 51.8399C50.0541 51.3262 49.744 51.0245 49.2889 50.8899C48.9629 50.7935 48.4604 50.7687 48.1637 50.8343ZM39.3775 52.661C39.3775 53.8027 39.3968 54.5454 39.4305 54.7027C39.6042 55.5131 40.1196 55.93 41.0187 55.9875C41.589 56.024 42.1213 55.8535 42.4828 55.5186C42.5766 55.4316 42.6644 55.3714 42.6779 55.3847C42.6914 55.398 42.7025 55.5209 42.7025 55.6578V55.9067H43.4862H44.27V53.3855V50.8645L43.4506 50.8772L42.6312 50.89L42.6075 52.4767C42.5815 54.2171 42.5851 54.1947 42.2777 54.4819C42.1487 54.6024 42.0878 54.6225 41.8103 54.636C41.4268 54.6548 41.2468 54.5663 41.1074 54.2905C41.0238 54.1248 41.0151 53.9766 41.0016 52.4883L40.9869 50.8667H40.1822H39.3775V52.661ZM35.2212 52.1685C34.6748 52.417 34.4147 53.1621 34.6249 53.8767C34.727 54.2238 35.0938 54.5704 35.4352 54.6424C35.9596 54.7528 36.475 54.5223 36.7111 54.0715C36.8493 53.8076 36.9019 53.2443 36.8171 52.936C36.7335 52.6321 36.4857 52.3099 36.2425 52.1889C35.9673 52.0521 35.4978 52.0427 35.2212 52.1685ZM53.5982 52.1921C53.1654 52.3901 52.9486 52.7791 52.9454 53.3633C52.9412 54.1453 53.3953 54.6552 54.1025 54.6626C54.6145 54.668 54.9966 54.4305 55.1987 53.9813C55.3536 53.637 55.3535 53.0894 55.1984 52.7447C55.0795 52.4804 54.8446 52.2469 54.5944 52.1442C54.3426 52.0408 53.8803 52.0631 53.5982 52.1921Z" fill="#B3B7BC"/>
</g>
<defs>
<clipPath id="clip0_0_40">
<rect width="57" height="56" fill="white"/>
</clipPath>
</defs>
</svg>
