<svg width="142" height="56" viewBox="0 0 142 56" fill="none" xmlns="http://www.w3.org/2000/svg">
<path fill-rule="evenodd" clip-rule="evenodd" d="M13.1801 0.601473C4.184 3.51125 0.313984 11.2789 3.7876 19.4529C4.71329 21.6318 7.76067 24.8296 9.79106 25.7538C10.4121 26.0364 10.9192 26.3872 10.9183 26.5339C10.9174 26.6802 9.95152 27.194 8.77135 27.6757C5.77143 28.901 1.79202 32.9702 0.829714 35.7969C-1.00947 41.1993 0.26336 47.0175 4.10807 50.7823C11.4232 57.945 27.0855 57.6872 33.9097 50.292C36.7537 47.2102 37.5664 45.1014 37.5782 40.7713C37.5863 37.7635 37.3883 36.7351 36.4324 34.8185C34.9936 31.9345 32.4285 29.5827 28.907 27.9195L26.1964 26.6391L28.0383 25.7005C32.5194 23.4174 34.9923 19.2692 35.0542 13.9327C35.122 8.12896 32.3472 3.91984 26.7745 1.37124C23.6507 -0.057232 16.473 -0.463563 13.1801 0.601473ZM112.168 2.45434C104.627 4.43271 98.2699 9.55925 95.0775 16.2371C92.8912 20.811 92.2778 23.5578 92.2868 28.7407C92.2999 36.4384 94.7977 42.6422 99.9595 47.7981C105.239 53.0713 111.244 55.4687 119.174 55.4687C127.407 55.4687 132.917 53.2686 138.497 47.7534C140.423 45.849 142 44.0634 142 43.7849C142 42.4219 139.814 43.5221 136.753 46.4269C131.551 51.3629 126.009 53.6628 119.317 53.6628C107.941 53.6628 98.439 46.4531 95.1864 35.3544C94.1821 31.9273 94.1694 25.9145 95.1588 22.1103C97.4559 13.2799 104.58 6.35917 113.548 4.24806C122.012 2.25524 130.602 4.83634 137.098 11.3245C138.873 13.0979 140.547 14.3842 141.081 14.3842C142.372 14.3842 142.237 13.8519 140.372 11.6053C136.76 7.254 131.426 3.8625 125.956 2.43944C122.61 1.56899 115.515 1.57666 112.168 2.45434ZM13.8581 2.79972C9.12707 4.36229 6.29936 6.94293 5.20733 10.6956C3.56522 16.3382 6.27992 21.7731 12.0501 24.3939C13.9101 25.2391 15.1102 25.4228 18.8301 25.4332C24.2519 25.4477 27.0484 24.4242 29.8341 21.406C35.2246 15.5644 33.1739 6.86482 25.6101 3.48912C22.8344 2.25072 16.6248 1.88638 13.8581 2.79972ZM47.5122 14.0456C65.4344 56.136 64.7524 54.6235 65.7391 54.4777C66.5084 54.3639 68.584 49.8627 77.6674 28.6116C83.7156 14.4609 88.6641 2.81642 88.6641 2.73471C88.6641 2.65254 88.1077 2.65028 87.4274 2.72884C86.2472 2.86473 85.7225 3.97582 76.0144 26.8806C70.4173 40.0855 65.7174 50.7516 65.5696 50.5832C65.4222 50.4144 60.97 40.0168 55.6767 27.477C50.3829 14.9373 45.8439 4.22007 45.5894 3.66159C45.2739 2.96902 44.7342 2.64577 43.8926 2.64577H42.6586L47.5122 14.0456ZM13.4061 28.561C8.47167 29.7746 5.25208 32.1345 3.4156 35.884C-0.226156 43.3185 4.29248 51.023 13.5756 53.2081C17.0542 54.0267 23.5617 53.5815 26.9521 52.2925C30.3267 51.0094 33.9762 47.5186 34.7785 44.8066C36.1164 40.2837 35.0858 35.8434 31.9784 32.7395C27.9018 28.6671 20.1057 26.9136 13.4061 28.561Z" fill="#B3B7BC"/>
</svg>
