<svg width="152" height="56" viewBox="0 0 152 56" fill="none" xmlns="http://www.w3.org/2000/svg">
<g clip-path="url(#clip0_0_43)">
<path fill-rule="evenodd" clip-rule="evenodd" d="M142.952 0.451613C142.952 0.7 143.054 0.903226 143.179 0.903226C143.303 0.903226 143.405 1.10645 143.405 1.35484C143.405 1.60323 143.507 1.80645 143.631 1.80645C143.763 1.80645 143.857 2.55906 143.857 3.6129C143.857 4.66674 143.951 5.41935 144.083 5.41935C144.208 5.41935 144.31 5.72419 144.31 6.09677C144.31 6.46935 144.411 6.77419 144.536 6.77419C144.66 6.77419 144.762 7.05668 144.762 7.40171C144.762 7.77023 144.949 8.16358 145.214 8.35484C145.463 8.5339 145.667 8.81368 145.667 8.97671C145.667 9.38836 147.158 10.8387 147.582 10.8387C147.772 10.8387 147.929 10.9403 147.929 11.0645C147.929 11.1887 148.132 11.2903 148.381 11.2903C148.63 11.2903 148.833 11.3919 148.833 11.5161C148.833 11.6403 149.139 11.7419 149.512 11.7419C150.115 11.7419 150.19 11.6667 150.19 11.0645C150.19 10.6919 150.089 10.3871 149.964 10.3871C149.84 10.3871 149.738 9.98065 149.738 9.48387C149.738 8.9871 149.636 8.58064 149.512 8.58064C149.387 8.58064 149.286 8.37742 149.286 8.12903C149.286 7.82803 149.135 7.67742 148.833 7.67742C148.585 7.67742 148.381 7.57581 148.381 7.45161C148.381 7.32742 148.483 7.22581 148.607 7.22581C148.732 7.22581 148.833 7.02258 148.833 6.77419C148.833 6.52581 148.732 6.32258 148.607 6.32258C148.483 6.32258 148.381 6.14171 148.381 5.92087C148.381 5.69981 148.177 5.37261 147.929 5.19355C147.461 4.85732 147.302 4.06452 147.702 4.06452C147.827 4.06452 147.929 4.16613 147.929 4.29032C147.929 4.41452 148.03 4.51613 148.155 4.51613C148.279 4.51613 148.381 4.3129 148.381 4.06452C148.381 3.81613 148.483 3.6129 148.607 3.6129C148.732 3.6129 148.833 3.81613 148.833 4.06452C148.833 4.3129 148.732 4.51613 148.607 4.51613C148.483 4.51613 148.381 4.71935 148.381 4.96774C148.381 5.21613 148.483 5.41935 148.607 5.41935C148.732 5.41935 148.833 5.62258 148.833 5.87097C148.833 6.11935 148.935 6.32258 149.06 6.32258C149.184 6.32258 149.286 6.52581 149.286 6.77419C149.286 7.02258 149.387 7.22581 149.512 7.22581C149.636 7.22581 149.738 7.53064 149.738 7.90323C149.738 8.27581 149.84 8.58064 149.964 8.58064C150.089 8.58064 150.19 8.9871 150.19 9.48387C150.19 9.98065 150.292 10.3871 150.417 10.3871C150.541 10.3871 150.643 10.5903 150.643 10.8387C150.643 11.0871 150.745 11.2903 150.869 11.2903C150.993 11.2903 151.095 10.9855 151.095 10.6129C151.095 10.2403 151.197 9.93548 151.321 9.93548C151.458 9.93548 151.548 8.95706 151.548 7.45161C151.548 5.94616 151.458 4.96774 151.321 4.96774C151.197 4.96774 151.095 4.80539 151.095 4.60668C151.095 4.40819 150.79 3.96087 150.417 3.6129C150.043 3.26494 149.738 2.81761 149.738 2.61913C149.738 2.42042 149.557 2.25806 149.336 2.25806C149.114 2.25806 148.787 2.05484 148.607 1.80645C148.428 1.55806 148.1 1.35484 147.879 1.35484C147.657 1.35484 147.476 1.25323 147.476 1.12903C147.476 1.00484 147.273 0.903226 147.024 0.903226C146.775 0.903226 146.571 0.801613 146.571 0.677419C146.571 0.553226 146.266 0.451613 145.893 0.451613C145.52 0.451613 145.214 0.35 145.214 0.225806C145.214 0.101613 144.705 0 144.083 0C143.103 0 142.952 0.0602903 142.952 0.451613ZM145.667 4.29032C145.667 4.41452 145.972 4.51613 146.345 4.51613C146.718 4.51613 147.024 4.41452 147.024 4.29032C147.024 4.16613 146.718 4.06452 146.345 4.06452C145.972 4.06452 145.667 4.16613 145.667 4.29032ZM147.476 7C147.476 7.12419 147.578 7.22581 147.702 7.22581C147.827 7.22581 147.929 7.12419 147.929 7C147.929 6.87581 147.827 6.77419 147.702 6.77419C147.578 6.77419 147.476 6.87581 147.476 7ZM133.452 11.9677C133.452 12.0919 133.147 12.1935 132.774 12.1935C132.401 12.1935 132.095 12.2952 132.095 12.4194C132.095 12.5435 131.892 12.6452 131.643 12.6452C131.394 12.6452 131.19 12.7468 131.19 12.871C131.19 12.9952 131.35 13.0968 131.546 13.0968C131.982 13.0968 132.548 13.6335 132.548 14.047C132.548 14.2147 132.751 14.4984 133 14.6774C133.249 14.8565 133.452 15.1356 133.452 15.2977C133.452 15.6814 135.387 17.6129 135.772 17.6129C135.934 17.6129 136.213 17.8161 136.393 18.0645C136.584 18.3296 136.978 18.5161 137.348 18.5161C137.693 18.5161 137.976 18.6177 137.976 18.7419C137.976 19.1068 140.895 19.0213 141.272 18.6451C141.639 18.2788 141.721 16.2581 141.369 16.2581C141.245 16.2581 141.143 16.0548 141.143 15.8065C141.143 15.5581 141.041 15.3548 140.917 15.3548C140.792 15.3548 140.69 15.1516 140.69 14.9032C140.69 14.6548 140.589 14.4516 140.464 14.4516C140.34 14.4516 140.238 14.2947 140.238 14.1027C140.238 13.6509 139.231 12.6452 138.778 12.6452C138.586 12.6452 138.429 12.5435 138.429 12.4194C138.429 12.2952 138.123 12.1935 137.75 12.1935C137.377 12.1935 137.071 12.0919 137.071 11.9677C137.071 11.8361 136.318 11.7419 135.262 11.7419C134.206 11.7419 133.452 11.8361 133.452 11.9677ZM150.19 13.3226C150.19 13.4468 150.292 13.5484 150.417 13.5484C150.541 13.5484 150.643 13.4468 150.643 13.3226C150.643 13.1984 150.541 13.0968 150.417 13.0968C150.292 13.0968 150.19 13.1984 150.19 13.3226ZM149.738 14.6774C149.738 15.05 149.636 15.3548 149.512 15.3548C149.387 15.3548 149.286 15.5581 149.286 15.8065C149.286 16.0548 149.184 16.2581 149.06 16.2581C148.935 16.2581 148.833 16.4613 148.833 16.7097C148.833 16.9581 148.732 17.1613 148.607 17.1613C148.483 17.1613 148.381 17.4661 148.381 17.8387C148.381 18.2113 148.279 18.5161 148.155 18.5161C148.03 18.5161 147.929 18.7194 147.929 18.9677C147.929 19.2161 147.827 19.4194 147.702 19.4194C147.578 19.4194 147.476 19.6226 147.476 19.871C147.476 20.1194 147.374 20.3226 147.25 20.3226C147.126 20.3226 147.024 20.5258 147.024 20.7742C147.024 21.0226 146.922 21.2258 146.798 21.2258C146.673 21.2258 146.571 21.429 146.571 21.6774C146.571 21.9258 146.47 22.129 146.345 22.129C146.221 22.129 146.119 22.3323 146.119 22.5806C146.119 22.829 146.061 23.0323 145.99 23.0323C145.742 23.0323 145.214 22.3851 145.214 22.0821C145.214 21.9143 145.011 21.6307 144.762 21.4516C144.513 21.2725 144.31 20.9914 144.31 20.827C144.31 20.5389 143.328 19.4194 143.076 19.4194C143.008 19.4194 142.952 19.6226 142.952 19.871C142.952 20.1194 143.054 20.3226 143.179 20.3226C143.303 20.3226 143.405 20.5258 143.405 20.7742C143.405 21.0226 143.507 21.2258 143.631 21.2258C143.755 21.2258 143.857 21.429 143.857 21.6774C143.857 21.9258 143.959 22.129 144.083 22.129C144.217 22.129 144.31 22.9571 144.31 24.1613C144.31 25.3655 144.217 26.1935 144.083 26.1935C143.959 26.1935 143.857 26.3968 143.857 26.6452C143.857 26.8935 143.755 27.0968 143.631 27.0968C143.507 27.0968 143.405 27.2776 143.405 27.4985C143.405 27.7195 143.201 28.0467 142.952 28.2258C142.704 28.4049 142.5 28.7321 142.5 28.9531C142.5 29.174 142.398 29.3548 142.274 29.3548C142.149 29.3548 142.048 29.5357 142.048 29.7565C142.048 29.9776 141.844 30.3048 141.595 30.4839C141.346 30.6629 141.143 30.9678 141.143 31.1613C141.143 31.3548 140.939 31.6596 140.69 31.8387C140.442 32.0178 140.238 32.3226 140.238 32.5161C140.238 32.7096 140.035 33.0145 139.786 33.1935C139.537 33.3726 139.333 33.6775 139.333 33.871C139.333 34.0645 139.13 34.3693 138.881 34.5484C138.632 34.7275 138.429 35.0546 138.429 35.2757C138.429 36.0265 137.34 35.7585 136.393 34.7742C135.915 34.2774 135.404 33.871 135.257 33.871C135.111 33.871 134.706 33.5661 134.357 33.1935C134.009 32.821 133.601 32.5161 133.452 32.5161C133.303 32.5161 132.896 32.2113 132.548 31.8387C132.199 31.4661 131.751 31.1613 131.552 31.1613C131.353 31.1613 131.19 31.0597 131.19 30.9355C131.19 30.8113 131.009 30.7097 130.788 30.7097C130.567 30.7097 130.239 30.5065 130.06 30.2581C129.88 30.0097 129.552 29.8064 129.331 29.8064C129.11 29.8064 128.929 29.7048 128.929 29.5806C128.929 29.4565 128.725 29.3548 128.476 29.3548C128.227 29.3548 128.024 29.2532 128.024 29.129C128.024 29.0048 127.82 28.9032 127.571 28.9032C127.323 28.9032 127.119 28.8016 127.119 28.6774C127.119 28.5532 126.915 28.4516 126.667 28.4516C126.418 28.4516 126.214 28.35 126.214 28.2258C126.214 28.0804 123.877 28 119.655 28C115.432 28 113.095 28.0804 113.095 28.2258C113.095 28.35 113.401 28.4516 113.774 28.4516C114.147 28.4516 114.452 28.5532 114.452 28.6774C114.452 28.8016 114.656 28.9032 114.905 28.9032C115.154 28.9032 115.357 29.0048 115.357 29.129C115.357 29.2532 115.662 29.3548 116.036 29.3548C116.409 29.3548 116.714 29.4565 116.714 29.5806C116.714 29.7048 116.918 29.8064 117.167 29.8064C117.415 29.8064 117.619 29.9081 117.619 30.0323C117.619 30.1565 117.823 30.2581 118.071 30.2581C118.32 30.2581 118.524 30.3597 118.524 30.4839C118.524 30.6081 118.705 30.7097 118.926 30.7097C119.148 30.7097 119.475 30.9129 119.655 31.1613C119.834 31.4097 120.162 31.6129 120.383 31.6129C120.605 31.6129 120.786 31.7145 120.786 31.8387C120.786 31.9629 120.967 32.0645 121.188 32.0645C121.41 32.0645 121.737 32.2677 121.917 32.5161C122.096 32.7645 122.383 32.9677 122.555 32.9677C122.726 32.9677 123.151 33.2726 123.5 33.6452C123.849 34.0177 124.254 34.3226 124.4 34.3226C124.547 34.3226 125.058 34.729 125.536 35.2258C126.014 35.7226 126.516 36.129 126.651 36.129C127.111 36.129 132.548 41.7503 132.548 42.2256C132.548 42.7014 126.66 48.7742 126.199 48.7742C126.063 48.7742 125.562 49.1806 125.083 49.6774C124.605 50.1742 124.076 50.5806 123.907 50.5806C123.738 50.5806 123.453 50.7839 123.274 51.0323C123.094 51.2806 122.789 51.4839 122.595 51.4839C122.401 51.4839 122.096 51.6871 121.917 51.9355C121.737 52.1839 121.432 52.3871 121.238 52.3871C121.044 52.3871 120.739 52.5903 120.56 52.8387C120.38 53.0871 120.052 53.2903 119.831 53.2903C119.61 53.2903 119.429 53.3919 119.429 53.5161C119.429 53.6403 119.225 53.7419 118.976 53.7419C118.727 53.7419 118.524 53.8435 118.524 53.9677C118.524 54.0919 118.32 54.1935 118.071 54.1935C117.823 54.1935 117.619 54.2952 117.619 54.4194C117.619 54.5435 117.314 54.6452 116.94 54.6452C116.567 54.6452 116.262 54.7468 116.262 54.871C116.262 54.9952 115.957 55.0968 115.583 55.0968C114.824 55.0968 114.757 55.2072 115.228 55.6773C115.497 55.9458 117.016 56 124.276 56C132.488 56 133 55.9765 133 55.5983C133 55.3772 133.204 55.05 133.452 54.871C133.701 54.6919 133.905 54.3647 133.905 54.1436C133.905 53.9228 134.007 53.7419 134.131 53.7419C134.255 53.7419 134.357 53.5611 134.357 53.3402C134.357 53.1192 134.561 52.792 134.81 52.6129C135.058 52.4338 135.262 52.1066 135.262 51.8856C135.262 51.6647 135.364 51.4839 135.488 51.4839C135.613 51.4839 135.714 51.303 135.714 51.0822C135.714 50.8611 135.918 50.5339 136.167 50.3548C136.415 50.1758 136.619 49.8922 136.619 49.7244C136.619 49.3109 137.185 48.7742 137.621 48.7742C137.816 48.7742 137.976 48.9551 137.976 49.1759C137.976 49.397 138.18 49.7242 138.429 49.9032C138.677 50.0823 138.881 50.4095 138.881 50.6305C138.881 50.8514 138.983 51.0323 139.107 51.0323C139.232 51.0323 139.333 51.2131 139.333 51.434C139.333 51.655 139.537 51.9822 139.786 52.1613C140.035 52.3404 140.238 52.6675 140.238 52.8886C140.238 53.1094 140.34 53.2903 140.464 53.2903C140.589 53.2903 140.69 53.4935 140.69 53.7419C140.69 53.9903 140.792 54.1935 140.917 54.1935C141.041 54.1935 141.143 54.3968 141.143 54.6452C141.143 54.8935 141.245 55.0968 141.369 55.0968C141.493 55.0968 141.595 55.3 141.595 55.5484C141.595 55.9869 141.746 56 146.798 56H152V55.3226C152 54.95 151.898 54.6452 151.774 54.6452C151.649 54.6452 151.548 54.4419 151.548 54.1935C151.548 53.9452 151.446 53.7419 151.321 53.7419C151.197 53.7419 151.095 53.5611 151.095 53.3402C151.095 53.1192 150.892 52.792 150.643 52.6129C150.394 52.4338 150.19 52.1066 150.19 51.8856C150.19 51.6647 150.089 51.4839 149.964 51.4839C149.84 51.4839 149.738 51.2806 149.738 51.0323C149.738 50.7839 149.636 50.5806 149.512 50.5806C149.387 50.5806 149.286 50.3998 149.286 50.1789C149.286 49.9579 149.082 49.6307 148.833 49.4516C148.585 49.2725 148.381 48.9677 148.381 48.7742C148.381 48.5807 148.177 48.2758 147.929 48.0968C147.68 47.9177 147.476 47.6129 147.476 47.4194C147.476 47.2258 147.273 46.921 147.024 46.7419C146.775 46.5629 146.571 46.2763 146.571 46.1052C146.571 45.9342 146.266 45.5093 145.893 45.1613C145.52 44.8133 145.214 44.4089 145.214 44.2626C145.214 44.1165 144.807 43.6064 144.31 43.129C143.812 42.6517 143.405 42.1416 143.405 41.9955C143.405 41.8492 143.074 41.419 142.67 41.0394C142.205 40.6034 142.039 40.3139 142.217 40.2527C142.373 40.1994 142.5 39.9612 142.5 39.7232C142.5 39.4852 142.602 39.2903 142.726 39.2903C142.851 39.2903 142.952 39.0871 142.952 38.8387C142.952 38.5903 143.054 38.3871 143.179 38.3871C143.303 38.3871 143.405 38.1839 143.405 37.9355C143.405 37.6871 143.507 37.4839 143.631 37.4839C143.755 37.4839 143.857 37.2806 143.857 37.0323C143.857 36.7839 143.959 36.5806 144.083 36.5806C144.208 36.5806 144.31 36.3774 144.31 36.129C144.31 35.8806 144.411 35.6774 144.536 35.6774C144.66 35.6774 144.762 35.3726 144.762 35C144.762 34.6274 144.864 34.3226 144.988 34.3226C145.113 34.3226 145.214 34.1194 145.214 33.871C145.214 33.6226 145.316 33.4194 145.44 33.4194C145.565 33.4194 145.667 33.1145 145.667 32.7419C145.667 32.3694 145.768 32.0645 145.893 32.0645C146.017 32.0645 146.119 31.8613 146.119 31.6129C146.119 31.3645 146.221 31.1613 146.345 31.1613C146.47 31.1613 146.571 30.8565 146.571 30.4839C146.571 30.1113 146.673 29.8064 146.798 29.8064C146.922 29.8064 147.024 29.4 147.024 28.9032C147.024 28.4065 147.126 28 147.25 28C147.374 28 147.476 27.6952 147.476 27.3226C147.476 26.95 147.578 26.6452 147.702 26.6452C147.827 26.6452 147.929 26.3403 147.929 25.9677C147.929 25.5952 148.03 25.2903 148.155 25.2903C148.279 25.2903 148.381 24.8839 148.381 24.3871C148.381 23.8903 148.483 23.4839 148.607 23.4839C148.732 23.4839 148.833 23.0774 148.833 22.5806C148.833 22.0839 148.935 21.6774 149.06 21.6774C149.184 21.6774 149.286 21.1694 149.286 20.5484C149.286 19.9274 149.387 19.4194 149.512 19.4194C149.638 19.4194 149.738 18.8171 149.738 18.0645C149.738 17.3119 149.839 16.7097 149.964 16.7097C150.09 16.7097 150.19 16.1075 150.19 15.3548C150.19 14.6022 150.09 14 149.964 14C149.84 14 149.738 14.3048 149.738 14.6774ZM33.4762 19.6452C33.4762 19.7694 33.069 19.871 32.5714 19.871C32.0738 19.871 31.6667 19.9726 31.6667 20.0968C31.6667 20.221 31.3613 20.3226 30.9881 20.3226C30.6149 20.3226 30.3095 20.4242 30.3095 20.5484C30.3095 20.6726 29.9024 20.7742 29.4048 20.7742C28.9071 20.7742 28.5 20.8758 28.5 21C28.5 21.1242 28.1946 21.2258 27.8214 21.2258C27.4482 21.2258 27.1429 21.3274 27.1429 21.4516C27.1429 21.5758 26.7357 21.6774 26.2381 21.6774H25.3333V35.4516C25.3333 44.4839 25.4111 49.2258 25.5595 49.2258C25.6839 49.2258 25.7857 49.5306 25.7857 49.9032C25.7857 50.2758 25.8875 50.5806 26.0119 50.5806C26.1363 50.5806 26.2381 50.8446 26.2381 51.1675C26.2381 51.5284 26.4993 51.998 26.9167 52.3871C27.2899 52.7351 27.5952 53.1388 27.5952 53.2842C27.5952 53.643 28.1716 54.1935 28.547 54.1935C28.7151 54.1935 28.9992 54.3968 29.1786 54.6452C29.3702 54.9103 29.7642 55.0968 30.1333 55.0968C30.4789 55.0968 30.7619 55.1984 30.7619 55.3226C30.7619 55.4468 31.169 55.5484 31.6667 55.5484C32.1643 55.5484 32.5714 55.65 32.5714 55.7742C32.5714 55.9031 33.25 56 34.1548 56C35.0595 56 35.7381 55.9031 35.7381 55.7742C35.7381 55.6453 36.4167 55.5484 37.3214 55.5484C38.2262 55.5484 38.9048 55.4515 38.9048 55.3226C38.9048 55.1984 39.0647 55.0968 39.2601 55.0968C40.1038 55.0968 40.2619 54.5469 40.2619 51.6128C40.2619 48.9248 40.2379 48.7742 39.8095 48.7742C39.5607 48.7742 39.3571 48.8758 39.3571 49C39.3571 49.1305 38.6383 49.2258 37.6532 49.2258C36.0104 49.2258 35.9211 49.1976 35.1652 48.4429C34.7338 48.0125 34.381 47.5045 34.381 47.3139C34.381 47.1235 34.2792 46.9677 34.1548 46.9677C34.01 46.9677 33.9286 44.9678 33.9286 41.4194C33.9286 35.6223 33.8643 35.2258 32.9268 35.2258C32.7313 35.2258 32.5714 35.1242 32.5714 35C32.5714 34.8758 32.4115 34.7742 32.2161 34.7742C31.8732 34.7742 31.2143 34.265 31.2143 33.9999C31.2143 33.929 33.25 33.871 35.7381 33.871H40.2619V30.9355V28H37.0952H33.9286V23.7097C33.9286 21 33.8453 19.4194 33.7024 19.4194C33.578 19.4194 33.4762 19.521 33.4762 19.6452ZM7.69048 20.0968C7.69048 20.221 7.28333 20.3226 6.78571 20.3226C6.2881 20.3226 5.88095 20.4242 5.88095 20.5484C5.88095 20.6726 5.59799 20.7742 5.25237 20.7742C4.88323 20.7742 4.4892 20.9607 4.29762 21.2258C4.11825 21.4742 3.83913 21.6774 3.6774 21.6774C3.26551 21.6774 0.904762 24.0766 0.904762 24.495C0.904762 24.684 0.802976 24.8387 0.678571 24.8387C0.554167 24.8387 0.452381 25.0419 0.452381 25.2903C0.452381 25.5387 0.350595 25.7419 0.22619 25.7419C0.0830119 25.7419 0 27.3978 0 30.2581C0 33.1184 0.0830119 34.7742 0.22619 34.7742C0.350595 34.7742 0.452381 35.079 0.452381 35.4516C0.452381 35.8242 0.554167 36.129 0.678571 36.129C0.802976 36.129 0.904762 36.2833 0.904762 36.472C0.904762 36.9184 3.73305 39.7419 4.18023 39.7419C4.36932 39.7419 4.52381 39.8435 4.52381 39.9677C4.52381 40.0919 4.72738 40.1935 4.97619 40.1935C5.225 40.1935 5.42857 40.2952 5.42857 40.4194C5.42857 40.5435 5.73393 40.6452 6.10714 40.6452C6.48036 40.6452 6.78571 40.7468 6.78571 40.871C6.78571 40.9952 7.19286 41.0968 7.69048 41.0968C8.1881 41.0968 8.59524 41.1984 8.59524 41.3226C8.59524 41.4468 8.9006 41.5484 9.27381 41.5484C9.64702 41.5484 9.95238 41.65 9.95238 41.7742C9.95238 41.8984 10.156 42 10.4048 42C10.6536 42 10.8571 42.1016 10.8571 42.2258C10.8571 42.35 11.0132 42.4516 11.2039 42.4516C11.3948 42.4516 11.9037 42.8039 12.3348 43.2345C13.0817 43.9799 13.119 44.0932 13.119 45.6129C13.119 47.1326 13.0817 47.2459 12.3348 47.9913C11.7361 48.5893 11.362 48.7742 10.7515 48.7742C10.312 48.7742 9.95238 48.8758 9.95238 49C9.95238 49.1242 9.64702 49.2258 9.27381 49.2258C8.9006 49.2258 8.59524 49.1242 8.59524 49C8.59524 48.8758 8.08631 48.7742 7.46429 48.7742C6.84226 48.7742 6.33333 48.6726 6.33333 48.5484C6.33333 48.4242 6.02798 48.3226 5.65476 48.3226C5.28155 48.3226 4.97619 48.221 4.97619 48.0968C4.97619 47.9726 4.67083 47.871 4.29762 47.871C3.9244 47.871 3.61905 47.7694 3.61905 47.6452C3.61905 47.521 3.31369 47.4194 2.94048 47.4194C2.56726 47.4194 2.2619 47.3177 2.2619 47.1935C2.2619 47.0694 2.05833 46.9677 1.80952 46.9677C1.56071 46.9677 1.35714 46.8661 1.35714 46.7419C1.35714 46.6177 1.15357 46.5161 0.904762 46.5161C0.655952 46.5161 0.452381 46.4145 0.452381 46.2903C0.452381 46.1661 0.350595 46.0645 0.22619 46.0645C0.0836905 46.0645 0 47.57 0 50.129C0 54.0429 0.0167381 54.1935 0.452381 54.1935C0.70119 54.1935 0.904762 54.2952 0.904762 54.4194C0.904762 54.5435 1.21012 54.6452 1.58333 54.6452C1.95655 54.6452 2.2619 54.7468 2.2619 54.871C2.2619 54.9952 2.77083 55.0968 3.39286 55.0968C4.01488 55.0968 4.52381 55.1984 4.52381 55.3226C4.52381 55.4565 5.35325 55.5484 6.55952 55.5484C7.7658 55.5484 8.59524 55.6403 8.59524 55.7742C8.59524 55.8997 9.19849 56 9.95238 56C10.7063 56 11.3095 55.8997 11.3095 55.7742C11.3095 55.6453 11.9881 55.5484 12.8929 55.5484C13.7976 55.5484 14.4762 55.4515 14.4762 55.3226C14.4762 55.1984 14.7815 55.0968 15.1548 55.0968C15.528 55.0968 15.8333 54.9952 15.8333 54.871C15.8333 54.7468 16.1163 54.6452 16.4619 54.6452C16.8311 54.6452 17.2251 54.4586 17.4167 54.1935C17.596 53.9452 17.8749 53.7419 18.0362 53.7419C18.4479 53.7419 21.2619 50.8891 21.2619 50.472C21.2619 50.2833 21.3637 50.129 21.4881 50.129C21.6125 50.129 21.7143 49.8242 21.7143 49.4516C21.7143 49.079 21.8161 48.7742 21.9405 48.7742C22.0649 48.7742 22.1667 48.4694 22.1667 48.0968C22.1667 47.7242 22.2685 47.4194 22.3929 47.4194C22.532 47.4194 22.619 46.2903 22.619 44.4839C22.619 42.6774 22.532 41.5484 22.3929 41.5484C22.2685 41.5484 22.1667 41.2435 22.1667 40.871C22.1667 40.4984 22.0649 40.1935 21.9405 40.1935C21.8161 40.1935 21.7143 40.0127 21.7143 39.7918C21.7143 39.5708 21.5107 39.2436 21.2619 39.0645C21.0131 38.8855 20.8095 38.5583 20.8095 38.3372C20.8095 38.1164 20.6469 37.9355 20.4478 37.9355C20.249 37.9355 19.8009 37.6306 19.4524 37.2581C19.1038 36.8855 18.6557 36.5806 18.4569 36.5806C18.2579 36.5806 18.0952 36.479 18.0952 36.3548C18.0952 36.2306 17.8917 36.129 17.6429 36.129C17.394 36.129 17.1905 36.0274 17.1905 35.9032C17.1905 35.779 16.9869 35.6774 16.7381 35.6774C16.4893 35.6774 16.2857 35.5758 16.2857 35.4516C16.2857 35.3274 15.9804 35.2258 15.6071 35.2258C15.2339 35.2258 14.9286 35.1242 14.9286 35C14.9286 34.8758 14.725 34.7742 14.4762 34.7742C14.2274 34.7742 14.0238 34.6726 14.0238 34.5484C14.0238 34.4242 13.7185 34.3226 13.3452 34.3226C12.972 34.3226 12.6667 34.221 12.6667 34.0968C12.6667 33.9726 12.3837 33.871 12.0381 33.871C11.6689 33.871 11.2749 33.6845 11.0833 33.4194C10.904 33.171 10.6199 32.9677 10.4518 32.9677C10.0377 32.9677 9.5 32.403 9.5 31.9676C9.5 31.7725 9.39821 31.6129 9.27381 31.6129C9.1494 31.6129 9.04762 31.0506 9.04762 30.3635C9.04762 29.2388 9.12588 29.0358 9.83182 28.3313C10.4305 27.7333 10.8047 27.5484 11.4152 27.5484C11.8546 27.5484 12.2143 27.4468 12.2143 27.3226C12.2143 27.197 12.8175 27.0968 13.5714 27.0968C14.3253 27.0968 14.9286 27.197 14.9286 27.3226C14.9286 27.4515 15.6071 27.5484 16.5119 27.5484C17.4167 27.5484 18.0952 27.6453 18.0952 27.7742C18.0952 27.8984 18.5024 28 19 28C19.4976 28 19.9048 28.1016 19.9048 28.2258C19.9048 28.35 20.2101 28.4516 20.5833 28.4516H21.2619V24.9356C21.2619 21.0011 21.1827 20.7742 19.8077 20.7742C19.3635 20.7742 19 20.6726 19 20.5484C19 20.4242 18.4911 20.3226 17.869 20.3226C17.247 20.3226 16.7381 20.221 16.7381 20.0968C16.7381 19.9538 15.0794 19.871 12.2143 19.871C9.34913 19.871 7.69048 19.9538 7.69048 20.0968ZM102.238 20.0968C102.238 20.221 101.933 20.3226 101.56 20.3226C101.186 20.3226 100.881 20.4242 100.881 20.5484C100.881 20.6726 100.474 20.7742 99.9762 20.7742C99.4786 20.7742 99.0714 20.8758 99.0714 21C99.0714 21.1242 98.7661 21.2258 98.3929 21.2258C98.0196 21.2258 97.7143 21.3274 97.7143 21.4516C97.7143 21.5758 97.3071 21.6774 96.8095 21.6774H95.9048V35.6774C95.9048 44.8603 95.9826 49.6774 96.131 49.6774C96.2554 49.6774 96.3571 49.9823 96.3571 50.3548C96.3571 50.7274 96.4589 51.0323 96.5833 51.0323C96.7077 51.0323 96.8095 51.2355 96.8095 51.4839C96.8095 51.7323 96.9113 51.9355 97.0357 51.9355C97.1601 51.9355 97.2619 52.0906 97.2619 52.2801C97.2619 52.7283 99.182 54.6452 99.631 54.6452C99.8208 54.6452 99.9762 54.7468 99.9762 54.871C99.9762 54.9952 100.18 55.0968 100.429 55.0968C100.677 55.0968 100.881 55.1984 100.881 55.3226C100.881 55.4468 101.39 55.5484 102.012 55.5484C102.634 55.5484 103.143 55.65 103.143 55.7742C103.143 55.9031 103.821 56 104.726 56C105.631 56 106.31 55.9031 106.31 55.7742C106.31 55.6453 106.988 55.5484 107.893 55.5484C108.798 55.5484 109.476 55.4515 109.476 55.3226C109.476 55.1984 109.636 55.0968 109.832 55.0968C110.675 55.0968 110.833 54.5469 110.833 51.6128C110.833 48.9248 110.809 48.7742 110.381 48.7742C110.132 48.7742 109.929 48.8758 109.929 49C109.929 49.1305 109.21 49.2258 108.225 49.2258C106.582 49.2258 106.493 49.1976 105.737 48.4429C105.305 48.0125 104.952 47.5045 104.952 47.3139C104.952 47.1235 104.851 46.9677 104.726 46.9677C104.581 46.9677 104.5 44.9678 104.5 41.4194C104.5 35.4094 104.464 35.2258 103.272 35.2258C102.952 35.2258 102.69 35.1242 102.69 35C102.69 34.8758 102.487 34.7742 102.238 34.7742C101.937 34.7742 101.786 34.6236 101.786 34.3226C101.786 33.8861 101.937 33.871 106.31 33.871H110.833V30.9355V28H107.667H104.5V23.9355V19.871H103.369C102.747 19.871 102.238 19.9726 102.238 20.0968ZM52.4762 28.2258C52.4762 28.3547 51.7976 28.4516 50.8929 28.4516C49.9881 28.4516 49.3095 28.5485 49.3095 28.6774C49.3095 28.8016 48.9024 28.9032 48.4048 28.9032C47.9071 28.9032 47.5 29.0048 47.5 29.129C47.5 29.2532 47.2964 29.3548 47.0476 29.3548C46.6203 29.3548 46.5952 29.5055 46.5952 32.0645V34.7742H47.5C47.9976 34.7742 48.4048 34.6726 48.4048 34.5484C48.4048 34.4228 49.008 34.3226 49.7619 34.3226C50.5158 34.3226 51.119 34.2223 51.119 34.0968C51.119 33.957 52.3253 33.871 54.2857 33.871C56.2461 33.871 57.4524 33.957 57.4524 34.0968C57.4524 34.221 57.7577 34.3226 58.131 34.3226C58.5042 34.3226 58.8095 34.4242 58.8095 34.5484C58.8095 34.6726 58.9694 34.7742 59.1649 34.7742C59.622 34.7742 60.1667 35.3179 60.1667 35.7743C60.1667 35.9694 60.2685 36.129 60.3929 36.129C60.5173 36.129 60.619 36.6371 60.619 37.2581C60.619 38.362 60.6039 38.3871 59.9405 38.3871C59.5673 38.3871 59.2619 38.4887 59.2619 38.6129C59.2619 38.7445 58.508 38.8387 57.4524 38.8387C56.3968 38.8387 55.6429 38.9329 55.6429 39.0645C55.6429 39.1901 55.0396 39.2903 54.2857 39.2903C53.5318 39.2903 52.9286 39.3906 52.9286 39.5161C52.9286 39.6403 52.5214 39.7419 52.0238 39.7419C51.5262 39.7419 51.119 39.8435 51.119 39.9677C51.119 40.0919 50.8137 40.1935 50.4405 40.1935C50.0673 40.1935 49.7619 40.2952 49.7619 40.4194C49.7619 40.5435 49.5583 40.6452 49.3095 40.6452C49.0607 40.6452 48.8571 40.7468 48.8571 40.871C48.8571 40.9952 48.6536 41.0968 48.4048 41.0968C48.156 41.0968 47.9524 41.1984 47.9524 41.3226C47.9524 41.4468 47.797 41.5484 47.6072 41.5484C47.1582 41.5484 45.2381 43.4653 45.2381 43.9135C45.2381 44.1029 45.1363 44.2581 45.0119 44.2581C44.8875 44.2581 44.7857 44.4613 44.7857 44.7097C44.7857 44.9581 44.6839 45.1613 44.5595 45.1613C44.4213 45.1613 44.3333 46.2151 44.3333 47.871C44.3333 49.5268 44.4213 50.5806 44.5595 50.5806C44.6839 50.5806 44.7857 50.8855 44.7857 51.2581C44.7857 51.6306 44.8875 51.9355 45.0119 51.9355C45.1363 51.9355 45.2381 52.0902 45.2381 52.2792C45.2381 52.8703 47.647 55.0968 48.2867 55.0968C48.6004 55.0968 48.8571 55.1984 48.8571 55.3226C48.8571 55.463 50.139 55.5484 52.25 55.5484C54.361 55.5484 55.6429 55.463 55.6429 55.3226C55.6429 55.1984 55.9482 55.0968 56.3214 55.0968C56.6946 55.0968 57 54.9952 57 54.871C57 54.7468 57.1583 54.6452 57.3517 54.6452C57.5453 54.6452 58.3031 54.0355 59.0357 53.2903C59.7683 52.5452 60.4243 51.9355 60.4935 51.9355C60.5625 51.9355 60.619 52.7484 60.619 53.7419V55.5484H64.4643H68.3095V45.3871C68.3095 38.7635 68.2308 35.2258 68.0833 35.2258C67.9589 35.2258 67.8571 34.921 67.8571 34.5484C67.8571 34.1758 67.7554 33.871 67.631 33.871C67.5065 33.871 67.4048 33.6677 67.4048 33.4194C67.4048 33.171 67.303 32.9677 67.1786 32.9677C67.0542 32.9677 66.9524 32.8126 66.9524 32.6232C66.9524 32.2029 65.0451 30.2581 64.6333 30.2581C64.4708 30.2581 64.1913 30.0548 64.0119 29.8064C63.8325 29.5581 63.5048 29.3548 63.2833 29.3548C63.0621 29.3548 62.881 29.2532 62.881 29.129C62.881 29.0048 62.5756 28.9032 62.2024 28.9032C61.8292 28.9032 61.5238 28.8016 61.5238 28.6774C61.5238 28.5532 61.0149 28.4516 60.3929 28.4516C59.7708 28.4516 59.2619 28.35 59.2619 28.2258C59.2619 28.0854 57.9801 28 55.869 28C53.758 28 52.4762 28.0854 52.4762 28.2258ZM72.8333 41.7742V55.5484H76.9048H80.9762V48.3226C80.9762 43.6558 81.0563 41.0968 81.2024 41.0968C81.3268 41.0968 81.4286 40.7919 81.4286 40.4194C81.4286 40.0468 81.5304 39.7419 81.6548 39.7419C81.7792 39.7419 81.881 39.478 81.881 39.1551C81.881 38.7942 82.1422 38.3245 82.5595 37.9355C82.9327 37.5875 83.2381 37.1402 83.2381 36.9417C83.2381 36.743 83.4007 36.5806 83.5998 36.5806C83.7986 36.5806 84.2467 36.2758 84.5952 35.9032C84.985 35.4866 85.4554 35.2258 85.8169 35.2258C86.1403 35.2258 86.4048 35.1242 86.4048 35C86.4048 34.8758 86.6083 34.7742 86.8571 34.7742C87.1059 34.7742 87.3095 34.6726 87.3095 34.5484C87.3095 34.4228 87.9128 34.3226 88.6667 34.3226C89.4206 34.3226 90.0238 34.2223 90.0238 34.0968C90.0238 33.9678 90.7024 33.871 91.6071 33.871H93.1905V31.2582C93.1905 29.2945 93.1102 28.565 92.8673 28.3227C92.6169 28.0725 91.8033 28 89.2482 28C87.2019 28 85.9524 28.0856 85.9524 28.2258C85.9524 28.35 85.4435 28.4516 84.8214 28.4516C84.1994 28.4516 83.6905 28.5532 83.6905 28.6774C83.6905 28.8016 83.2833 28.9032 82.7857 28.9032C82.2881 28.9032 81.881 29.0048 81.881 29.129C81.881 29.2532 81.6774 29.3548 81.4286 29.3548C81.0766 29.3548 80.9762 29.2042 80.9762 28.6774V28H76.9048H72.8333V41.7742ZM57.4524 42.6774C57.4524 42.8064 56.7738 42.9032 55.869 42.9032C54.9643 42.9032 54.2857 43.0001 54.2857 43.129C54.2857 43.2532 54.1296 43.3548 53.939 43.3548C53.369 43.3548 52.0238 44.8564 52.0238 45.4925C52.0238 45.8071 51.922 46.0645 51.7976 46.0645C51.6732 46.0645 51.5714 46.3694 51.5714 46.7419C51.5714 47.1145 51.6732 47.4194 51.7976 47.4194C51.922 47.4194 52.0238 47.6768 52.0238 47.9913C52.0238 48.3431 52.326 48.865 52.808 49.3462C53.5639 50.1008 53.6533 50.129 55.2961 50.129C56.2812 50.129 57 50.0337 57 49.9032C57 49.779 57.3054 49.6774 57.6786 49.6774C58.0518 49.6774 58.3571 49.5758 58.3571 49.4516C58.3571 49.3274 58.5143 49.2258 58.7066 49.2258C59.1592 49.2258 60.1667 48.2201 60.1667 47.7682C60.1667 47.5763 60.2685 47.4194 60.3929 47.4194C60.5173 47.4194 60.619 47.2161 60.619 46.9677C60.619 46.7194 60.7208 46.5161 60.8452 46.5161C60.9696 46.5161 61.0714 46.0081 61.0714 45.3871C61.0714 44.7661 61.1732 44.2581 61.2976 44.2581C61.422 44.2581 61.5238 43.8516 61.5238 43.3548V42.4516H59.4881C58.2818 42.4516 57.4524 42.5435 57.4524 42.6774Z" fill="#B3B7BC"/>
</g>
<defs>
<clipPath id="clip0_0_43">
<rect width="152" height="56" fill="white"/>
</clipPath>
</defs>
</svg>
