<svg width="100" height="18" viewBox="0 0 100 18" fill="none" xmlns="http://www.w3.org/2000/svg">
<path d="M0.40625 12.1328V9.13281H13.2266V12.1328H0.40625ZM5.31641 16.7148V4.55078H8.31641V16.7148H5.31641ZM21.2548 17.8047C19.9814 17.8047 18.8642 17.5977 17.9033 17.1836C16.9502 16.7617 16.1923 16.1797 15.6298 15.4375C15.0752 14.6875 14.7587 13.8242 14.6806 12.8477L14.6689 12.707H18.0439L18.0673 12.8359C18.122 13.2422 18.2822 13.6055 18.5478 13.9258C18.8212 14.2461 19.1845 14.5 19.6377 14.6875C20.0986 14.875 20.6337 14.9688 21.2431 14.9688C21.8525 14.9688 22.3798 14.8672 22.8252 14.6641C23.2705 14.4609 23.6142 14.1797 23.8564 13.8203C24.1064 13.4609 24.2314 13.0508 24.2314 12.5898V12.5664C24.2314 11.7539 23.9462 11.1328 23.3759 10.7031C22.8056 10.2734 22.0087 10.0586 20.9853 10.0586H19.0517V7.53906H20.9384C21.5322 7.53906 22.0478 7.44141 22.4853 7.24609C22.9228 7.05078 23.2587 6.78125 23.4931 6.4375C23.7353 6.08594 23.8564 5.68359 23.8564 5.23047V5.20703C23.8564 4.74609 23.7509 4.35156 23.54 4.02344C23.3369 3.69531 23.0361 3.44531 22.6377 3.27344C22.247 3.09375 21.7744 3.00391 21.2197 3.00391C20.6728 3.00391 20.1884 3.09375 19.7666 3.27344C19.3447 3.45312 19.0087 3.70703 18.7587 4.03516C18.5087 4.36328 18.3564 4.75 18.3017 5.19531L18.29 5.30078H15.0439L15.0556 5.16016C15.1337 4.17578 15.4384 3.32031 15.9697 2.59375C16.5009 1.85937 17.2119 1.29297 18.1025 0.894531C19.0009 0.488281 20.04 0.285156 21.2197 0.285156C22.4384 0.285156 23.4931 0.472656 24.3837 0.847656C25.2822 1.21484 25.9775 1.73438 26.4697 2.40625C26.9619 3.07031 27.208 3.84766 27.208 4.73828V4.76172C27.208 5.46484 27.0517 6.08203 26.7392 6.61328C26.4267 7.14453 26.0009 7.58203 25.4619 7.92578C24.9306 8.26953 24.3369 8.51172 23.6806 8.65234V8.72266C24.9384 8.83984 25.9423 9.24609 26.6923 9.94141C27.4502 10.6367 27.8291 11.5586 27.8291 12.707V12.7305C27.8291 13.7383 27.5556 14.625 27.0087 15.3906C26.4619 16.1562 25.6962 16.75 24.7119 17.1719C23.7275 17.5938 22.5752 17.8047 21.2548 17.8047ZM35.5761 17.8047C34.3027 17.8047 33.1855 17.5977 32.2245 17.1836C31.2714 16.7617 30.5136 16.1797 29.9511 15.4375C29.3964 14.6875 29.08 13.8242 29.0019 12.8477L28.9902 12.707H32.3652L32.3886 12.8359C32.4433 13.2422 32.6034 13.6055 32.8691 13.9258C33.1425 14.2461 33.5058 14.5 33.9589 14.6875C34.4198 14.875 34.955 14.9688 35.5644 14.9688C36.1737 14.9688 36.7011 14.8672 37.1464 14.6641C37.5917 14.4609 37.9355 14.1797 38.1777 13.8203C38.4277 13.4609 38.5527 13.0508 38.5527 12.5898V12.5664C38.5527 11.7539 38.2675 11.1328 37.6972 10.7031C37.1269 10.2734 36.33 10.0586 35.3066 10.0586H33.373V7.53906H35.2597C35.8534 7.53906 36.3691 7.44141 36.8066 7.24609C37.2441 7.05078 37.58 6.78125 37.8144 6.4375C38.0566 6.08594 38.1777 5.68359 38.1777 5.23047V5.20703C38.1777 4.74609 38.0722 4.35156 37.8612 4.02344C37.6581 3.69531 37.3573 3.44531 36.9589 3.27344C36.5683 3.09375 36.0956 3.00391 35.5409 3.00391C34.9941 3.00391 34.5097 3.09375 34.0878 3.27344C33.6659 3.45312 33.33 3.70703 33.08 4.03516C32.83 4.36328 32.6777 4.75 32.623 5.19531L32.6112 5.30078H29.3652L29.3769 5.16016C29.455 4.17578 29.7597 3.32031 30.2909 2.59375C30.8222 1.85937 31.5331 1.29297 32.4237 0.894531C33.3222 0.488281 34.3612 0.285156 35.5409 0.285156C36.7597 0.285156 37.8144 0.472656 38.705 0.847656C39.6034 1.21484 40.2987 1.73438 40.7909 2.40625C41.2831 3.07031 41.5292 3.84766 41.5292 4.73828V4.76172C41.5292 5.46484 41.373 6.08203 41.0605 6.61328C40.748 7.14453 40.3222 7.58203 39.7831 7.92578C39.2519 8.26953 38.6581 8.51172 38.0019 8.65234V8.72266C39.2597 8.83984 40.2636 9.24609 41.0136 9.94141C41.7714 10.6367 42.1503 11.5586 42.1503 12.707V12.7305C42.1503 13.7383 41.8769 14.625 41.33 15.3906C40.7831 16.1562 40.0175 16.75 39.0331 17.1719C38.0487 17.5938 36.8964 17.8047 35.5761 17.8047ZM47.5897 17.5V4.87891H51.0116V6.97656H51.1053C51.3631 6.25781 51.8045 5.68359 52.4295 5.25391C53.0545 4.82422 53.7889 4.60938 54.6327 4.60938C55.2186 4.60938 55.7459 4.71094 56.2147 4.91406C56.6912 5.11719 57.0897 5.41016 57.41 5.79297C57.7381 6.16797 57.9725 6.62891 58.1131 7.17578H58.2069C58.4022 6.65234 58.6873 6.19922 59.0623 5.81641C59.4373 5.43359 59.8866 5.13672 60.41 4.92578C60.9334 4.71484 61.4998 4.60938 62.1092 4.60938C62.9373 4.60938 63.66 4.78906 64.2772 5.14844C64.8944 5.5 65.3748 5.99219 65.7186 6.625C66.0623 7.25781 66.2342 8.00391 66.2342 8.86328V17.5H62.8123V9.71875C62.8123 9.22656 62.7303 8.8125 62.5662 8.47656C62.41 8.14062 62.1795 7.88672 61.8748 7.71484C61.5702 7.53516 61.1912 7.44531 60.7381 7.44531C60.3084 7.44531 59.9295 7.54688 59.6014 7.75C59.2733 7.95312 59.0194 8.23047 58.8397 8.58203C58.66 8.93359 58.5702 9.34375 58.5702 9.8125V17.5H55.2537V9.61328C55.2537 9.15234 55.1717 8.76172 55.0077 8.44141C54.8436 8.12109 54.6092 7.875 54.3045 7.70312C53.9998 7.53125 53.6327 7.44531 53.203 7.44531C52.7733 7.44531 52.3944 7.55078 52.0662 7.76172C51.7381 7.97266 51.4803 8.26172 51.2928 8.62891C51.1053 8.98828 51.0116 9.40625 51.0116 9.88281V17.5H47.5897ZM73.407 17.7578C72.1336 17.7578 71.0281 17.4961 70.0906 16.9727C69.1531 16.4492 68.4305 15.6992 67.9227 14.7227C67.4148 13.7383 67.1609 12.5625 67.1609 11.1953V11.1719C67.1609 9.8125 67.4187 8.64453 67.9344 7.66797C68.45 6.68359 69.1727 5.92969 70.1023 5.40625C71.0398 4.875 72.1414 4.60938 73.407 4.60938C74.6727 4.60938 75.7703 4.875 76.7 5.40625C77.6375 5.92969 78.3641 6.67969 78.8797 7.65625C79.3953 8.63281 79.6531 9.80469 79.6531 11.1719V11.1953C79.6531 12.5703 79.3992 13.7461 78.8914 14.7227C78.3836 15.6992 77.6609 16.4492 76.7234 16.9727C75.7937 17.4961 74.6883 17.7578 73.407 17.7578ZM73.4187 15.0742C73.9891 15.0742 74.4773 14.9219 74.8836 14.6172C75.2977 14.3125 75.6141 13.8711 75.8328 13.293C76.0594 12.7148 76.1727 12.0156 76.1727 11.1953V11.1719C76.1727 10.3516 76.0594 9.65234 75.8328 9.07422C75.6062 8.49609 75.2859 8.05469 74.8719 7.75C74.4578 7.44531 73.9695 7.29297 73.407 7.29297C72.8523 7.29297 72.3641 7.44922 71.9422 7.76172C71.5281 8.06641 71.2078 8.50781 70.9812 9.08594C70.7547 9.65625 70.6414 10.3516 70.6414 11.1719V11.1953C70.6414 12.0156 70.7547 12.7148 70.9812 13.293C71.2078 13.8711 71.5281 14.3125 71.9422 14.6172C72.3562 14.9219 72.8484 15.0742 73.4187 15.0742ZM80.6384 17.5V4.87891H84.0603V7.03516H84.1541C84.3416 6.27734 84.6892 5.6875 85.197 5.26562C85.7048 4.84375 86.3337 4.63281 87.0837 4.63281C87.2869 4.63281 87.4783 4.64453 87.658 4.66797C87.8377 4.69141 87.9939 4.72656 88.1267 4.77344V7.77344C87.9627 7.71094 87.7673 7.66406 87.5408 7.63281C87.3142 7.60156 87.0759 7.58594 86.8259 7.58594C86.2478 7.58594 85.7517 7.69531 85.3377 7.91406C84.9236 8.13281 84.6072 8.45703 84.3884 8.88672C84.1697 9.30859 84.0603 9.82422 84.0603 10.4336V17.5H80.6384ZM94.0456 17.7578C92.7566 17.7578 91.6472 17.4961 90.7175 16.9727C89.7956 16.4414 89.0847 15.6836 88.5847 14.6992C88.0847 13.7148 87.8347 12.5508 87.8347 11.207V11.1953C87.8347 9.85938 88.0808 8.69922 88.573 7.71484C89.073 6.73047 89.7761 5.96875 90.6823 5.42969C91.5964 4.88281 92.6706 4.60938 93.905 4.60938C95.1316 4.60938 96.1941 4.875 97.0925 5.40625C97.9909 5.92969 98.6823 6.66797 99.1667 7.62109C99.6589 8.56641 99.905 9.67578 99.905 10.9492V12.0039H89.5222V9.84766H98.2761L96.6589 11.8633V10.5391C96.6589 9.79688 96.5456 9.17578 96.3191 8.67578C96.0925 8.17578 95.7761 7.80078 95.3698 7.55078C94.9636 7.30078 94.4948 7.17578 93.9636 7.17578C93.4245 7.17578 92.948 7.30469 92.5339 7.5625C92.1198 7.82031 91.7956 8.20312 91.5612 8.71094C91.3269 9.21094 91.2097 9.82031 91.2097 10.5391V11.875C91.2097 12.5781 91.3269 13.1797 91.5612 13.6797C91.7956 14.1719 92.1277 14.5508 92.5573 14.8164C92.9948 15.0742 93.5144 15.2031 94.1159 15.2031C94.5847 15.2031 94.9909 15.1328 95.3347 14.9922C95.6862 14.8438 95.9675 14.6602 96.1784 14.4414C96.3972 14.2148 96.5456 13.9883 96.6237 13.7617L96.6472 13.6914H99.7995L99.7644 13.8203C99.6706 14.2734 99.487 14.7305 99.2136 15.1914C98.948 15.6523 98.5808 16.0781 98.112 16.4688C97.6511 16.8594 97.0808 17.1719 96.4011 17.4062C95.7292 17.6406 94.9441 17.7578 94.0456 17.7578Z" fill="#B3B7BC"/>
</svg>
