<svg width="17" height="20" viewBox="0 0 17 20" fill="none" xmlns="http://www.w3.org/2000/svg">
<path d="M16.4479 15.5861C16.1463 16.2848 15.7892 16.928 15.3756 17.5193C14.8117 18.3255 14.3501 18.8835 13.9943 19.1934C13.4427 19.702 12.8518 19.9625 12.219 19.9773C11.7647 19.9773 11.2168 19.8477 10.5791 19.5847C9.93928 19.323 9.35129 19.1934 8.81366 19.1934C8.2498 19.1934 7.64507 19.323 6.99824 19.5847C6.35041 19.8477 5.82854 19.9847 5.42953 19.9983C4.82271 20.0242 4.21785 19.7563 3.61411 19.1934C3.22876 18.8563 2.74677 18.2786 2.16937 17.4601C1.54987 16.586 1.04055 15.5725 0.641542 14.417C0.214217 13.1689 0 11.9603 0 10.7902C0 9.44984 0.288823 8.29382 0.867331 7.32509C1.32199 6.54696 1.92684 5.93316 2.68386 5.48255C3.44089 5.03195 4.25885 4.80233 5.13972 4.78763C5.62171 4.78763 6.25377 4.93714 7.03923 5.23096C7.82248 5.52576 8.32539 5.67526 8.54589 5.67526C8.71074 5.67526 9.26942 5.50045 10.2165 5.15195C11.1122 4.82874 11.8681 4.69492 12.4874 4.74764C14.1654 4.88343 15.4261 5.54675 16.2645 6.74177C14.7637 7.6536 14.0213 8.93072 14.0361 10.5691C14.0497 11.8452 14.5113 12.9071 15.4187 13.7503C15.8299 14.1417 16.2891 14.4441 16.8 14.6589C16.6892 14.9812 16.5722 15.2898 16.4479 15.5861ZM12.5994 0.400114C12.5994 1.40034 12.235 2.33425 11.5086 3.19867C10.632 4.22629 9.57179 4.8201 8.42204 4.7264C8.40739 4.60641 8.39889 4.48011 8.39889 4.3474C8.39889 3.38718 8.81575 2.35956 9.55603 1.51934C9.92562 1.09392 10.3957 0.74019 10.9657 0.458013C11.5345 0.180046 12.0725 0.0263242 12.5785 0C12.5932 0.133715 12.5994 0.267451 12.5994 0.400114Z" fill="white"/>
</svg>
