<svg width="136" height="31" viewBox="0 0 136 31" fill="none" xmlns="http://www.w3.org/2000/svg">
<path d="M3.82422 6.86719C2.10547 6.86719 0.777344 5.51953 0.777344 3.89844C0.777344 2.27734 2.10547 0.929688 3.82422 0.929688C5.54297 0.929688 6.87109 2.27734 6.87109 3.89844C6.87109 5.51953 5.54297 6.86719 3.82422 6.86719ZM0.972656 30.5V9.5625H6.67578V30.5H0.972656ZM16.6578 30.9297C11.3844 30.9297 8.14219 26.8281 8.14219 20.0312V20.0117C8.14219 13.1953 11.3844 9.13281 16.6578 9.13281C19.6266 9.13281 21.9703 10.6562 23.1031 13.1953H23.2203V2.31641H28.9234V30.5H23.2203V26.9258H23.1031C21.9898 29.4062 19.6852 30.9297 16.6578 30.9297ZM18.5719 26.2031C21.3453 26.2031 23.2398 23.8203 23.2398 20.0312V20.0117C23.2398 16.2422 21.3258 13.8594 18.5719 13.8594C15.7398 13.8594 13.943 16.1836 13.943 20.0117V20.0312C13.943 23.8398 15.7203 26.2031 18.5719 26.2031ZM40.6633 30.9297C34.257 30.9297 30.3703 26.7695 30.3703 20.0703V20.0508C30.3703 13.3906 34.2961 9.13281 40.4289 9.13281C46.5617 9.13281 50.4094 13.293 50.4094 19.6211V21.3789H35.9953C36.0539 24.7188 37.8703 26.6719 40.7805 26.6719C43.1242 26.6719 44.55 25.3828 44.9602 24.2109L44.9992 24.0938H50.2336L50.175 24.3086C49.5305 27.3945 46.6398 30.9297 40.6633 30.9297ZM40.5266 13.3906C38.1828 13.3906 36.425 14.9531 36.0539 17.7852H44.9406C44.5891 14.8945 42.8898 13.3906 40.5266 13.3906ZM57.9891 30.832C53.7898 30.832 50.9578 28.1953 50.9578 24.5039V24.4648C50.9578 20.6562 53.907 18.4297 59.1023 18.0977L64.2781 17.7852V16.4961C64.2781 14.6406 63.0672 13.4883 60.8406 13.4883C58.7117 13.4883 57.4227 14.4844 57.1492 15.832L57.1102 16.0078H51.8953L51.9148 15.7734C52.2273 11.9062 55.5477 9.13281 61.075 9.13281C66.4852 9.13281 69.9813 11.9258 69.9813 16.1445V30.5H64.2781V27.375H64.1609C62.9695 29.5234 60.743 30.832 57.9891 30.832ZM56.6023 24.2109C56.6023 25.7539 57.8719 26.6719 59.8445 26.6719C62.4031 26.6719 64.2781 25.0312 64.2781 22.8438V21.3398L59.9617 21.6133C57.7547 21.75 56.6023 22.6875 56.6023 24.1719V24.2109ZM73.518 30.5V13H70.6859V10.1875H73.518V7.6875C73.518 3.78125 75.3344 1.92578 79.0844 1.92578C79.8461 1.92578 80.6469 1.98438 81.1547 2.0625V4.81641C80.7445 4.75781 80.2172 4.73828 79.6898 4.73828C77.8148 4.73828 76.8773 5.69531 76.8773 7.70703V10.1875H81.057V13H76.9164V30.5H73.518ZM83.1484 30.5V2.31641H86.5469V30.5H83.1484ZM97.9547 30.8906C92.3102 30.8906 88.5406 26.8086 88.5406 20.3438V20.3047C88.5406 13.8398 92.3297 9.79688 97.9352 9.79688C103.541 9.79688 107.349 13.8203 107.349 20.3047V20.3438C107.349 26.8281 103.56 30.8906 97.9547 30.8906ZM97.9742 27.8828C101.548 27.8828 103.873 25.1094 103.873 20.3438V20.3047C103.873 15.5391 101.529 12.8047 97.9352 12.8047C94.4 12.8047 92.0172 15.5586 92.0172 20.3047V20.3438C92.0172 25.1289 94.3805 27.8828 97.9742 27.8828ZM113.21 30.5L107.527 10.1875H110.905L114.968 26.7109H115.046L119.636 10.1875H122.917L127.527 26.7109H127.605L131.667 10.1875H135.027L129.363 30.5H125.905L121.316 14.7773H121.238L116.667 30.5H113.21Z" fill="white"/>
</svg>
