<svg width="248" height="167" viewBox="0 0 248 167" fill="none" xmlns="http://www.w3.org/2000/svg">
<g filter="url(#filter0_d_0_153)">
<path d="M82.3249 41.1291C82.5427 40.4589 83.4907 40.4589 83.7085 41.1291L85.1397 45.5339C85.2371 45.8336 85.5164 46.0365 85.8315 46.0365H90.463C91.1676 46.0365 91.4606 46.9382 90.8905 47.3524L87.1436 50.0747C86.8886 50.2599 86.7819 50.5882 86.8793 50.8879L88.3105 55.2927C88.5283 55.9629 87.7613 56.5201 87.1912 56.106L83.4442 53.3836C83.1893 53.1984 82.8441 53.1984 82.5892 53.3836L78.8422 56.106C78.2721 56.5201 77.5051 55.9629 77.7229 55.2927L79.1541 50.8879C79.2515 50.5882 79.1448 50.2599 78.8898 50.0747L75.1429 47.3524C74.5728 46.9382 74.8658 46.0365 75.5704 46.0365H80.2019C80.5171 46.0365 80.7963 45.8336 80.8937 45.5339L82.3249 41.1291Z" fill="#3E66DF"/>
<path d="M102.692 41.1291C102.909 40.4589 103.857 40.4589 104.075 41.1291L105.506 45.5339C105.604 45.8336 105.883 46.0365 106.198 46.0365H110.83C111.534 46.0365 111.827 46.9382 111.257 47.3524L107.51 50.0747C107.255 50.2599 107.149 50.5882 107.246 50.8879L108.677 55.2927C108.895 55.9629 108.128 56.5201 107.558 56.106L103.811 53.3836C103.556 53.1984 103.211 53.1984 102.956 53.3836L99.2088 56.106C98.6388 56.5201 97.8718 55.9629 98.0895 55.2927L99.5207 50.8879C99.6181 50.5882 99.5114 50.2599 99.2565 50.0747L95.5095 47.3524C94.9395 46.9382 95.2324 46.0365 95.9371 46.0365H100.569C100.884 46.0365 101.163 45.8336 101.26 45.5339L102.692 41.1291Z" fill="#3E66DF"/>
<path d="M123.058 41.1291C123.276 40.4589 124.224 40.4589 124.442 41.1291L125.873 45.5339C125.97 45.8336 126.25 46.0365 126.565 46.0365H131.196C131.901 46.0365 132.194 46.9382 131.624 47.3524L127.877 50.0747C127.622 50.2599 127.515 50.5882 127.613 50.8879L129.044 55.2927C129.262 55.9629 128.495 56.5201 127.925 56.106L124.178 53.3836C123.923 53.1984 123.577 53.1984 123.322 53.3836L119.576 56.106C119.005 56.5201 118.238 55.9629 118.456 55.2927L119.887 50.8879C119.985 50.5882 119.878 50.2599 119.623 50.0747L115.876 47.3524C115.306 46.9382 115.599 46.0365 116.304 46.0365H120.935C121.25 46.0365 121.53 45.8336 121.627 45.5339L123.058 41.1291Z" fill="#3E66DF"/>
<path d="M143.425 41.1291C143.643 40.4589 144.591 40.4589 144.808 41.1291L146.24 45.5339C146.337 45.8336 146.616 46.0365 146.931 46.0365H151.563C152.268 46.0365 152.561 46.9382 151.99 47.3524L148.244 50.0747C147.989 50.2599 147.882 50.5882 147.979 50.8879L149.411 55.2927C149.628 55.9629 148.861 56.5201 148.291 56.106L144.544 53.3836C144.289 53.1984 143.944 53.1984 143.689 53.3836L139.942 56.106C139.372 56.5201 138.605 55.9629 138.823 55.2927L140.254 50.8879C140.351 50.5882 140.245 50.2599 139.99 50.0747L136.243 47.3524C135.673 46.9382 135.966 46.0365 136.67 46.0365H141.302C141.617 46.0365 141.896 45.8336 141.994 45.5339L143.425 41.1291Z" fill="#3E66DF"/>
<path d="M163.792 41.1291C164.009 40.4589 164.957 40.4589 165.175 41.1291L166.606 45.5339C166.704 45.8336 166.983 46.0365 167.298 46.0365H171.93C172.634 46.0365 172.927 46.9382 172.357 47.3524L168.61 50.0747C168.355 50.2599 168.249 50.5882 168.346 50.8879L169.777 55.2927C169.995 55.9629 169.228 56.5201 168.658 56.106L164.911 53.3836C164.656 53.1984 164.311 53.1984 164.056 53.3836L160.309 56.106C159.739 56.5201 158.972 55.9629 159.189 55.2927L160.621 50.8879C160.718 50.5882 160.611 50.2599 160.356 50.0747L156.609 47.3524C156.039 46.9382 156.332 46.0365 157.037 46.0365H161.669C161.984 46.0365 162.263 45.8336 162.36 45.5339L163.792 41.1291Z" fill="#3E66DF"/>
</g>
<defs>
<filter id="filter0_d_0_153" x="0.0952988" y="0.448818" width="247.309" height="165.843" filterUnits="userSpaceOnUse" color-interpolation-filters="sRGB">
<feFlood flood-opacity="0" result="BackgroundImageFix"/>
<feColorMatrix in="SourceAlpha" type="matrix" values="0 0 0 0 0 0 0 0 0 0 0 0 0 0 0 0 0 0 127 0" result="hardAlpha"/>
<feOffset dy="34.1869"/>
<feGaussianBlur stdDeviation="36.369"/>
<feComposite in2="hardAlpha" operator="out"/>
<feColorMatrix type="matrix" values="0 0 0 0 0.0833333 0 0 0 0 0.0833333 0 0 0 0 0.0833333 0 0 0 0.15 0"/>
<feBlend mode="normal" in2="BackgroundImageFix" result="effect1_dropShadow_0_153"/>
<feBlend mode="normal" in="SourceGraphic" in2="effect1_dropShadow_0_153" result="shape"/>
</filter>
</defs>
</svg>
