<svg width="84" height="17" viewBox="0 0 84 17" fill="none" xmlns="http://www.w3.org/2000/svg">
<path d="M21.4821 5.73755V4.36011H27.9713V5.73755H25.5523V12.2607H23.9011V5.73755H21.4821Z" fill="#202020"/>
<path d="M31.7115 12.3764C31.1053 12.3764 30.5824 12.2522 30.1421 12.0038C29.7017 11.7554 29.363 11.404 29.1259 10.9482C28.8902 10.4909 28.7731 9.95037 28.7731 9.32516C28.7731 8.71547 28.8902 8.18129 29.1259 7.7219C29.363 7.26111 29.6968 6.90193 30.128 6.64366C30.5584 6.38609 31.0651 6.25696 31.6465 6.25696C32.1673 6.25696 32.638 6.36845 33.0579 6.59003C33.4791 6.81019 33.8129 7.14468 34.0599 7.59206C34.3083 8.03804 34.4325 8.59622 34.4325 9.26589V9.71751H30.3961V9.72315C30.3961 10.1656 30.5161 10.5135 30.7574 10.7675C31.0002 11.0216 31.3276 11.1486 31.7397 11.1486C32.0142 11.1486 32.2513 11.0914 32.451 10.9764C32.6521 10.86 32.7939 10.6885 32.8772 10.4627L34.3958 10.5643C34.2808 11.114 33.9879 11.5536 33.5179 11.8825C33.0473 12.212 32.4453 12.3764 31.7115 12.3764ZM30.3961 8.69854H32.8857C32.8814 8.34712 32.7678 8.05709 32.5441 7.82916C32.3197 7.59983 32.029 7.4848 31.6719 7.4848C31.3064 7.4848 31.0072 7.60335 30.7743 7.84046C30.5408 8.07615 30.4145 8.36194 30.3961 8.69854Z" fill="#202020"/>
<path d="M40.4347 8.02393L38.9302 8.11707C38.8886 7.92725 38.7841 7.76424 38.6169 7.62876C38.4511 7.49186 38.2253 7.42271 37.9395 7.42271C37.6854 7.42271 37.4695 7.47634 37.2931 7.5836C37.116 7.68944 37.0292 7.83128 37.0334 8.00981C37.0292 8.15095 37.0849 8.27091 37.1999 8.36829C37.3143 8.46637 37.509 8.5447 37.7842 8.60257L38.8568 8.81991C39.9972 9.05348 40.568 9.58767 40.5702 10.4232C40.5702 10.8127 40.4558 11.1542 40.2286 11.4478C40.0007 11.7399 39.6881 11.9671 39.2915 12.1309C38.8963 12.2946 38.4426 12.3764 37.931 12.3764C37.1463 12.3764 36.5204 12.2127 36.0539 11.8853C35.5889 11.5565 35.3179 11.1091 35.241 10.5445L36.8584 10.4599C36.9092 10.7012 37.0278 10.8833 37.214 11.0075C37.4018 11.1302 37.6417 11.1909 37.9338 11.1909C38.2231 11.1909 38.456 11.1345 38.631 11.0216C38.8074 10.9087 38.897 10.7647 38.8992 10.5897C38.8914 10.2961 38.6381 10.1 38.1399 9.99977L37.1124 9.79654C35.9664 9.5672 35.3949 9.00267 35.3991 8.10296C35.397 7.53138 35.6256 7.08046 36.085 6.75092C36.5437 6.42208 37.1527 6.25696 37.9112 6.25696C38.6599 6.25696 39.2499 6.41503 39.681 6.73116C40.1115 7.0473 40.3627 7.47845 40.4347 8.02393Z" fill="#202020"/>
<path d="M44.7584 6.33604V7.56953H43.6434V10.4402C43.6434 10.666 43.6942 10.8198 43.7958 10.9002C43.8989 10.9793 44.0336 11.0188 44.1995 11.0188C44.2764 11.0188 44.3533 11.0124 44.4309 10.999C44.5079 10.9842 44.5671 10.9729 44.6088 10.9652L44.8656 12.1874C44.7845 12.2142 44.6687 12.2438 44.5184 12.2777C44.3695 12.313 44.1889 12.3348 43.9765 12.3426C43.3781 12.3666 42.8982 12.2375 42.5369 11.9531C42.1757 11.6694 41.9964 11.2361 42.0006 10.6547V7.56953H41.1906V6.33604H42.0006V4.91626H43.6434V6.33604H44.7584Z" fill="#202020"/>
<path d="M45.8259 12.2609V6.33616H47.4715V12.2609H45.8259ZM46.5711 5.57122C46.3298 5.57122 46.1223 5.48937 45.9473 5.32565C45.7723 5.16194 45.6848 4.96647 45.6848 4.73855C45.6848 4.50921 45.7723 4.31374 45.9473 4.15144C46.1223 3.98984 46.3298 3.90869 46.5711 3.90869C46.8153 3.90869 47.0256 3.98984 47.2006 4.15144C47.3756 4.31374 47.4631 4.50921 47.4631 4.73855C47.4631 4.96647 47.3756 5.16194 47.2006 5.32565C47.0256 5.48937 46.8153 5.57122 46.5711 5.57122Z" fill="#202020"/>
<path d="M48.78 12.2607V6.33599H50.3466V7.38037H50.4171C50.5413 7.03036 50.7474 6.75586 51.0353 6.55616C51.3246 6.35716 51.669 6.25696 52.0684 6.25696C52.4748 6.25696 52.8199 6.35857 53.1043 6.5618C53.3901 6.76362 53.5813 7.036 53.6773 7.38037H53.7394C53.8593 7.04165 54.0788 6.76997 54.397 6.56463C54.7146 6.35998 55.0914 6.25696 55.5261 6.25696C56.0772 6.25696 56.526 6.43337 56.8725 6.78479C57.2183 7.1348 57.3919 7.63158 57.3919 8.27514V12.2607H55.7519V8.59974C55.7519 8.27091 55.6644 8.02393 55.4894 7.86021C55.3144 7.69509 55.0956 7.61182 54.8345 7.61182C54.5353 7.61182 54.3018 7.70709 54.1345 7.89691C53.9687 8.08744 53.8861 8.33583 53.8861 8.64208V12.2607H52.2914V8.56587C52.2914 8.27444 52.2081 8.04298 52.043 7.8715C51.8771 7.69862 51.6591 7.61182 51.3881 7.61182C51.115 7.61182 50.8864 7.71203 50.7022 7.91102C50.5173 8.11072 50.4256 8.37534 50.4256 8.70418V12.2607H48.78Z" fill="#202020"/>
<path d="M61.3662 12.3764C60.7657 12.3764 60.247 12.2487 59.8109 11.9925C59.3763 11.7371 59.0404 11.3793 58.8033 10.9199C58.5676 10.4613 58.4504 9.92779 58.4504 9.31952C58.4504 8.70842 58.5676 8.17282 58.8033 7.71344C59.0404 7.25476 59.3763 6.89699 59.8109 6.64084C60.247 6.38539 60.7657 6.25696 61.3662 6.25696C61.9646 6.25696 62.4819 6.38539 62.9187 6.64084C63.3548 6.89699 63.6907 7.25476 63.9263 7.71344C64.1634 8.17282 64.282 8.70842 64.282 9.31952C64.282 9.92779 64.1634 10.4613 63.9263 10.9199C63.6907 11.3793 63.3548 11.7371 62.9187 11.9925C62.4819 12.2487 61.9646 12.3764 61.3662 12.3764ZM61.3747 11.1034C61.7811 11.1034 62.0888 10.9341 62.2977 10.5953C62.5066 10.2552 62.611 9.82618 62.611 9.30822C62.611 8.79309 62.5066 8.36476 62.2977 8.02393C62.0888 7.68168 61.7811 7.51021 61.3747 7.51021C60.9605 7.51021 60.6472 7.68168 60.4348 8.02393C60.2238 8.36476 60.1186 8.79309 60.1186 9.30822C60.1186 9.82618 60.2238 10.2552 60.4348 10.5953C60.6472 10.9341 60.9605 11.1034 61.3747 11.1034Z" fill="#202020"/>
<path d="M66.9994 8.83402V12.2607H65.3538V6.33599H66.9203V7.38037H66.9909C67.1243 7.036 67.3444 6.76362 67.6514 6.5618C67.9598 6.35857 68.333 6.25696 68.772 6.25696C69.3887 6.25696 69.8841 6.45666 70.2567 6.85536C70.6307 7.25264 70.8184 7.7967 70.8184 8.48684V12.2607H69.1756V8.78039C69.177 8.41768 69.0839 8.13401 68.8962 7.93078C68.7078 7.72614 68.4488 7.62311 68.1199 7.62311C67.7883 7.62311 67.5194 7.72967 67.3127 7.94207C67.1052 8.15518 67.0008 8.45226 66.9994 8.83402Z" fill="#202020"/>
<path d="M72.1072 12.2609V6.33616H73.7528V12.2609H72.1072ZM72.8524 5.57122C72.6111 5.57122 72.4036 5.48937 72.2286 5.32565C72.0536 5.16194 71.9661 4.96647 71.9661 4.73855C71.9661 4.50921 72.0536 4.31374 72.2286 4.15144C72.4036 3.98984 72.6111 3.90869 72.8524 3.90869C73.0966 3.90869 73.3068 3.98984 73.4818 4.15144C73.6569 4.31374 73.7444 4.50921 73.7444 4.73855C73.7444 4.96647 73.6569 5.16194 73.4818 5.32565C73.3068 5.48937 73.0966 5.57122 72.8524 5.57122Z" fill="#202020"/>
<path d="M76.7524 12.3736C76.1857 12.3736 75.7165 12.2261 75.3439 11.9305C74.9713 11.6334 74.785 11.1923 74.785 10.6066C74.785 10.1649 74.888 9.81771 75.0955 9.56508C75.3044 9.31316 75.5782 9.12899 75.9169 9.01185C76.2556 8.8933 76.6204 8.81638 77.0121 8.78039C77.5258 8.72958 77.8927 8.67596 78.1129 8.6195C78.3345 8.56305 78.446 8.43885 78.446 8.24691V8.22433C78.446 7.98018 78.3683 7.79106 78.2145 7.65698C78.0621 7.52361 77.8454 7.45658 77.5653 7.45658C77.2696 7.45658 77.0346 7.5215 76.8596 7.65134C76.6846 7.77977 76.5689 7.94207 76.5125 8.13965L74.9939 8.01546C75.1068 7.47563 75.3869 7.0473 75.835 6.73116C76.2845 6.41503 76.8639 6.25696 77.5738 6.25696C78.0141 6.25696 78.4248 6.32682 78.8073 6.46583C79.1911 6.60555 79.5002 6.8229 79.7359 7.11786C79.9709 7.41142 80.0887 7.79388 80.0887 8.26385V12.2607H78.5306V11.4393H78.4855C78.3401 11.7145 78.1242 11.9389 77.8363 12.1139C77.5498 12.2868 77.1885 12.3736 76.7524 12.3736ZM77.2238 11.2389C77.5829 11.2389 77.8786 11.1345 78.1101 10.9256C78.3415 10.7153 78.4573 10.4542 78.4573 10.1437V9.51428C78.393 9.55803 78.2935 9.59613 78.1581 9.63001C78.0226 9.66388 77.8786 9.69351 77.7262 9.71751C77.5738 9.7422 77.4369 9.76267 77.3169 9.7796C77.029 9.82124 76.7961 9.90239 76.6197 10.0224C76.4426 10.143 76.3544 10.3187 76.3544 10.5502C76.3544 10.7781 76.4362 10.9503 76.6 11.0667C76.7637 11.1817 76.9711 11.2389 77.2238 11.2389Z" fill="#202020"/>
<path d="M83.0121 4.36011V12.2607H81.3665V4.36011H83.0121Z" fill="#202020"/>
<path d="M8.76032 0.0462646C4.15943 0.0462646 0.430023 3.77638 0.430023 8.37656C0.430023 12.9775 4.15943 16.7069 8.76032 16.7069C13.3605 16.7069 17.0906 12.9767 17.0906 8.37656C17.0906 3.77638 13.3605 0.0462646 8.76032 0.0462646ZM6.71956 10.6135C6.71956 11.0637 6.35473 11.4278 5.90523 11.4278C5.45502 11.4278 5.0909 11.0637 5.0909 10.6135V7.14166C5.0909 6.69145 5.45502 6.32662 5.90523 6.32662C6.35473 6.32662 6.71956 6.69145 6.71956 7.14166V10.6135ZM12.4721 10.5549C12.4721 11.1914 12.1002 11.4194 11.4637 11.4194H8.53522C7.89871 11.4194 7.38288 10.9035 7.38288 10.267V7.38652C7.38288 7.38652 7.32572 6.90738 7.85637 6.45717C8.15628 6.20243 8.60155 5.71623 8.91274 5.1263C9.5309 3.9542 9.90066 3.61266 10.1822 3.7044C11.2252 4.04241 10.7037 5.58851 10.3671 6.23418H11.3197C11.9555 6.23418 12.4721 6.75002 12.4721 7.38652V10.5549Z" fill="#5D5DFF"/>
</svg>
